<svg version="1.0" xmlns="http://www.w3.org/2000/svg" width="95" height="21" viewBox="0 0 950 210"><path d="M62 198c-7-7-12-20-12-29 0-11-9-19-22-21-32-4-39-63-9-73 12-3 26-3 32 1 8 4 9 3 5-5-4-6-4-20-1-32 5-16 14-19 38-17 27 3 32 7 32 30-1 14 3 24 7 22 15-10 47 7 53 27 8 24-11 49-36 49-12 0-19 7-19 18 0 22-19 42-40 42-9 0-21-5-28-12zm48-88c0-13-7-20-20-20s-20 7-20 20 7 20 20 20 20-7 20-20zm120 0V50l85 1c71 1 87 4 98 19 13 18 13 18 25-1 14-22 71-26 90-7 9 9 12 9 12 0 0-23 37-12 49 15l13 28 13-26c14-25 18-26 109-28 94-1 95-1 110 26l14 28 13-28c10-23 18-27 51-27h38v60c0 53-2 60-20 60-17 0-20-7-21-47l-1-48-21 48c-28 64-51 63-82-5l-24-53v53l-1 52h-44c-51 0-76-19-77-58 0-24-2-22-19 16-23 52-52 56-70 12l-13-31-18 31c-24 38-79 43-103 8l-16-22v22c0 15-6 22-20 22-17 0-20-7-20-40 0-28-4-40-14-40-16 0-26 21-26 56 0 41-28 29-32-13-2-27-8-39-20-41-15-3-18 4-18 37 0 34-3 41-20 41-18 0-20-7-20-60zm276-9c-9-14-33-14-41-1-4 6-1 18 6 26 11 13 14 13 27 0 8-8 11-19 8-25zm234 9c0-13-7-20-20-20s-20 7-20 20 7 20 20 20 20-7 20-20zm170-90c0-13 7-20 20-20s20 7 20 20-7 20-20 20-20-7-20-20z" fill="#fff"/></svg>