<!DOCTYPE svg PUBLIC "-//W3C//DTD SVG 20010904//EN" "http://www.w3.org/TR/2001/REC-SVG-20010904/DTD/svg10.dtd">
<svg version="1.0" xmlns="http://www.w3.org/2000/svg" width="17px" height="17px" viewBox="0 0 170 170" preserveAspectRatio="xMidYMid meet">
<g id="layer101" fill="#ffffff" stroke="none">
 <path d="M36 161 c-3 -5 -4 -28 -2 -52 4 -42 -6 -77 -28 -91 -20 -13 -1 -15 82 -10 51 3 82 9 82 16 0 6 -9 25 -19 43 -15 24 -17 33 -7 36 18 7 8 67 -11 67 -8 0 -17 -9 -20 -20 -3 -11 -14 -20 -24 -20 -12 0 -19 7 -19 20 0 20 -24 28 -34 11z"/>
 </g>

</svg>